<svg viewBox="0 0 368.68011 165.05896" xmlns="http://www.w3.org/2000/svg"><g fill="#fff"><path d="m147.96656 15.53636h12.44221v47.39873h21.83755v10.91791h-34.27976z"/><path d="m195.61662 12.82833a6.904 6.904 0 1 1 0 13.79578 7.17818 7.17818 0 0 1 -7.36324-6.94035 7.10891 7.10891 0 0 1 7.36324-6.85543zm5.84068 61.02467h-11.68049v-39.52682h11.68049z"/><path d="m212.28942 73.853v-61.02467h11.68049v26.3229c1.94632-3.63959 6.68645-5.67083 11.59557-5.67083 10.1562 0 19.12866 8.0409 19.12866 20.73613 0 12.4422-8.97246 20.4831-19.12866 20.4831-4.90912 0-9.64925-2.11616-11.59557-5.75575v4.90912zm21.075-10.326c4.994 0 9.14144-3.72365 9.14144-9.56432a9.14443 9.14443 0 1 0 -18.282 0 9.20461 9.20461 0 0 0 9.14053 9.56432z"/><path d="m299.54952 66.65874c-3.97755 5.92473-11.34166 8.0409-18.02811 8.0409-11.34166 0-20.65209-8.2948-20.65209-20.737 0-12.44133 9.31042-20.48223 20.65209-20.48223 11.25674 0 20.2292 8.37886 20.2292 20.82106 0 1.01562-.08492 2.624-.16985 3.63959h-28.946c.59187 4.57029 5.58591 6.60152 9.73331 6.60152 3.21584 0 6.68645-1.1846 8.63277-3.72365zm-9.64839-16.08179c-.59273-4.82419-4.994-6.77051-8.2948-6.77051s-7.787 1.77733-8.80261 6.77051z"/><path d="m321.55345 73.853h-11.76455v-39.52682h11.76455v9.56432c2.03211-7.36324 7.1102-10.4101 11.17268-10.4101a14.59385 14.59385 0 0 1 6.77137 1.4385l-2.11616 10.57994a13.341 13.341 0 0 0 -6.00966-1.1846c-6.77051 0-9.81823 5.332-9.81823 15.743z"/><path d="m152.6703 111.78273h5.47932c2.50265 0 2.97667-1.11614 3.17944-3.28083h.87957v8.08422h-.87957c-.20278-2.16469-.67679-3.28083-3.17944-3.28083h-5.47932v7.813c0 2.57024.5754 2.773 3.28083 2.942v.84577h-9.91013v-.84577c2.70543-.169 3.28083-.37176 3.28083-2.942v-16.1c0-2.60491-.5754-2.77389-3.28083-2.94287v-.84577h18.73784l2.26608 5.51311-.70972.37262c-2.13089-2.87528-4.53216-4.36318-8.86154-4.36318h-3.78864a.92543.92543 0 0 0 -1.01475 1.01475z"/><path d="m167.889 124.90605v-.84577c1.86053-.169 2.29988-.54074 2.29988-1.75827v-8.72635c0-.812-.30417-1.11614-1.04855-1.11614h-1.25133v-.67679l4.228-2.63784h1.04855v13.15711c0 1.21753.43935 1.58929 2.26608 1.75827v.84577zm3.85537-23.1348a1.9126 1.9126 0 1 1 0 3.82157 1.91256 1.91256 0 1 1 0-3.82157z"/><path d="m187.26809 124.90605v-.84577c1.86052-.169 2.26608-.54074 2.26608-1.75827v-8.59117c0-1.99571-1.04855-2.84148-2.63784-2.84148a7.76849 7.76849 0 0 0 -4.397 1.455v9.97764c0 1.21753.43935 1.58929 2.26608 1.75827v.84577h-7.54262v-.84577c1.86053-.169 2.29988-.54074 2.29988-1.75827v-8.72635c0-.812-.30417-1.11614-1.04855-1.11614h-1.25133v-.67679l4.228-2.63784h1.04855v1.69068a10.9435 10.9435 0 0 1 5.24275-1.69068c1.99484 0 4.80253.77731 4.80253 4.566v8.59112c0 1.21753.43935 1.58929 2.26608 1.75827v.84577z"/><path d="m207.05361 123.18158a10.34854 10.34854 0 0 1 -5.61537 2.16469c-2.80682 0-4.566-1.25133-4.566-3.61966 0-3.65259 4.32938-4.90391 10.11287-5.85108v-2.02953c0-2.46886-.54074-3.416-2.43506-3.416-1.96191 0-3.11185.812-3.51741 2.46886-.30417 1.14994-.94716 1.624-1.69154 1.624-.84491 0-1.31892-.50781-1.31892-1.52256 0-1.92812 2.57111-3.85537 6.69685-3.85537 2.87528 0 5.27654 1.04855 5.27654 4.76873v7.94817c0 1.25219.33883 1.82673 1.08235 1.82673a2.679 2.679 0 0 0 1.25133-.37176v1.21753a4.51051 4.51051 0 0 1 -2.63784.74438 2.42875 2.42875 0 0 1 -2.6378-2.09713zm-.06846-1.31978v-4.70114c-4.12574.6092-6.86583 1.55636-6.86583 4.1604a2.14366 2.14366 0 0 0 2.40126 2.29987 8.08369 8.08369 0 0 0 4.46457-1.75913z"/><path d="m224.13283 124.90605v-.84577c1.86053-.169 2.26608-.54074 2.26608-1.75827v-8.59117c0-1.99571-1.04855-2.84148-2.63784-2.84148a7.76849 7.76849 0 0 0 -4.397 1.455v9.97764c0 1.21753.43935 1.58929 2.26608 1.75827v.84577h-7.54262v-.84577c1.86052-.169 2.29988-.54074 2.29988-1.75827v-8.72635c0-.812-.30417-1.11614-1.04855-1.11614h-1.25133v-.67679l4.228-2.63784h1.04855v1.69068a10.9435 10.9435 0 0 1 5.24275-1.69068c1.99484 0 4.80253.77731 4.80253 4.566v8.59112c0 1.21753.43935 1.58929 2.26608 1.75827v.84577z"/><path d="m245.67662 114.52282c-.74438 0-1.38651-.474-1.62308-1.624a2.58766 2.58766 0 0 0 -2.80769-2.43506c-3.17944 0-4.26179 2.87528-4.26179 6.79824 0 3.92383 1.59016 6.73064 4.97238 6.73064 2.40126 0 3.85537-1.5217 4.90392-3.95675l1.21753.64213c-1.14994 2.80768-3.07719 4.7358-6.42648 4.7358-5.0391 0-7.91438-3.51827-7.91438-8.15182 0-4.59975 3.14565-8.11715 7.50883-8.11715 3.585 0 5.98713 1.96191 5.98713 3.82157a1.47278 1.47278 0 0 1 -1.55637 1.5564z"/><path d="m253.35269 115.639c-.0338.54074-.06759 1.08234-.06759 1.62308 0 3.92383 1.38651 6.73064 5.27654 6.73064 2.19849 0 4.09281-1.4879 5.10756-3.88916l1.25133.57454c-1.18373 2.80768-3.34843 4.7358-6.56167 4.7358-5.41173 0-8.3208-3.51827-8.3208-8.15182 0-4.59975 2.87528-8.11715 7.644-8.11715 3.95762 0 6.66305 2.33367 6.66305 6.49407zm.169-1.35358h7.81386a3.48374 3.48374 0 0 0 -3.61966-3.82157c-2.60406-.00004-3.754 1.48786-4.19422 3.82153z"/><path d="m294.41163 122.97794a10.13441 10.13441 0 0 1 -7.1024 2.43593c-6.59546 0-11.26367-5.20895-11.26367-12.346 0-7.1362 4.66821-12.34514 11.29747-12.34514a10.01736 10.01736 0 0 1 5.91867 1.69068l.474-1.18373h1.01475l2.0633 6.59546-.77818.27124c-2.0971-3.82244-4.871-5.91953-8.456-5.91953-5.41173 0-7.813 4.566-7.813 10.891s2.40126 10.85725 7.7116 10.85725a7.793 7.793 0 0 0 5.88487-2.40126v-3.65259c0-2.57111-.54074-2.77389-3.247-2.94287v-.84577h9.77491v.84577c-2.57025.169-3.17944.37176-3.17944 2.94287v7.03481h-1.01389z"/><path d="m311.82881 112.93267c-1.455 0-1.65775-1.55549-2.77389-1.55549a3.45426 3.45426 0 0 0 -2.67163 1.72447v9.20035c0 1.21753.43935 1.58929 2.26608 1.75827v.84577h-7.54262v-.84577c1.86053-.169 2.29988-.54074 2.29988-1.75827v-8.72635c0-.812-.30417-1.11614-1.04855-1.11614h-1.25133v-.67679l4.228-2.63784h1.04855v2.23228a6.15856 6.15856 0 0 1 4.49836-2.23228c1.86052 0 2.604.981 2.604 2.0633a1.58056 1.58056 0 0 1 -1.65685 1.72449z"/><path d="m322.9209 109.14489a8.13592 8.13592 0 0 1 0 16.269c-4.76873 0-7.94818-3.51827-7.94818-8.15182a7.73549 7.73549 0 0 1 7.94818-8.11718zm0 14.95005c3.41688 0 4.7358-2.90907 4.7358-6.8329 0-3.923-1.31892-6.79824-4.7358-6.79824-3.416 0-4.70114 2.87528-4.70114 6.79824 0 3.92383 1.28512 6.8329 4.70114 6.8329z"/><path d="m342.70555 111.78273 4.228-2.63784h1.04855v13.15711c0 1.21753.43935 1.58929 2.26608 1.75827v.84577a27.48467 27.48467 0 0 0 -5.24275.50781v-1.65775a11.031 11.031 0 0 1 -5.24275 1.65775c-1.99571 0-4.80253-.77818-4.80253-4.566v-7.27225c0-.812-.305-1.11614-1.04855-1.11614h-1.21753v-.67679l4.22713-2.63784h1.0148v11.703c0 1.99484 1.08235 2.84061 2.6725 2.84061a8.21348 8.21348 0 0 0 4.397-1.4541v-8.65876c0-.812-.30417-1.11614-1.08235-1.11614h-1.21753z"/><path d="m351.87039 131.12975v-.84575c1.85966-.169 2.29988-.54074 2.29988-1.72447v-14.98387c0-.812-.30417-1.11614-1.04855-1.11614h-1.35272v-.67679l4.32938-2.63784h1.04855v1.72447a6.00685 6.00685 0 0 1 4.49836-1.72447c4.49836 0 7.03481 3.5512 7.03481 8.11715 0 4.59975-2.53645 8.15182-7.23846 8.15182a5.887 5.887 0 0 1 -4.29472-1.55636v4.702c0 1.18373.43935 1.55549 2.26608 1.72447v.84577zm5.27654-18.67023v9.63972a4.46022 4.46022 0 0 0 3.754 1.85966c3.38222 0 4.53216-2.773 4.53216-6.69685 0-3.923-1.14994-6.66305-4.53216-6.66305a4.46089 4.46089 0 0 0 -3.754 1.86052z"/><circle cx="40.12686" cy="17.96553" r="2.92975"/><path d="m114.51865 38.66269c.01565-.58968.04493-1.176.04493-1.76931a66.325 66.325 0 0 0 -8.87752-33.17248l-2.15252-3.7209-1.99954 3.80542c-.16155.307-16.56539 30.71613-53.3058 30.71613-1.51864 0-3.03259-.06118-4.54013-.17211a82.58116 82.58116 0 0 1 17.98374-12.12144l2.94741-1.47852-2.33974-2.32369c-.797-.79168-19.81128-19.332-44.64759-14.79159l.85373 4.66664a38.02379 38.02379 0 0 1 5.385-.58721 10.58174 10.58174 0 0 1 1.57841 2.513c-13.56272 11.54071-21.80328 25.94849-24.49594 42.96681-2.31085 14.61292-1.53949 39.22991 15.26233 73.52037a220.05793 220.05793 0 0 0 21.24486 34.96874l2.62218 3.37641 15.32972-41.66272-18.26-13.55278a62.6342 62.6342 0 0 0 11.23064 1.02865 63.61414 63.61414 0 0 0 62.29593-51.70362 65.96144 65.96144 0 0 0 3.83056-20.13683c.00007-.12396.00934-.36897.00934-.36897zm-79.50565-29.81987a48.86207 48.86207 0 0 1 7.70755 2.55318 21.30521 21.30521 0 0 1 6.32221 12.7712 81.98526 81.98526 0 0 0 -11.47576 9.42346 61.30913 61.30913 0 0 1 -20.47324-7.51241 74.53866 74.53866 0 0 1 17.91924-17.23543zm-20.56429 21.18748a66.26346 66.26346 0 0 0 33.7795 9.23491c31.62979 0 49.32172-21.03089 55.239-29.64415.84651 1.71422 1.58911 3.47457 2.27047 5.25765a65.45845 65.45845 0 0 1 -60.18407 33.94016 64.90214 64.90214 0 0 1 -34.823-11.87955 62.704 62.704 0 0 1 3.7181-6.90902zm-5.55794 11.39284a69.62145 69.62145 0 0 0 36.45637 12.13511c1.01635.04386 2.02734.06633 3.03834.06633a70.32047 70.32047 0 0 0 59.30359-32.722q.45034 1.67958.80572 3.3829a65.53279 65.53279 0 0 1 -62.13344 40.1263 65.43324 65.43324 0 0 1 -39.83145-15.0057 64.93456 64.93456 0 0 1 2.36087-7.98294zm-3.34994 13.25925a70.21163 70.21163 0 0 0 40.68785 14.4709c.65581.01819 1.30734.02782 1.961.02782a70.39159 70.39159 0 0 0 61.47832-36.41283c.09187 1.37113.15192 2.74581.15192 4.1251 0 .40955-.023.81355-.031 1.22122a65.06261 65.06261 0 0 1 -63.573 42.66569 65.28212 65.28212 0 0 1 -41.44992-16.77118 76.36594 76.36594 0 0 1 .77483-9.32672zm2.03377 34.62425q2.57022 1.99913 5.30613 3.72357a125.24647 125.24647 0 0 0 .04333 13.89673 146.81963 146.81963 0 0 1 -5.34946-17.6203zm-1.49323-7.51448a100.73341 100.73341 0 0 1 -1.24409-11.50377 70.03759 70.03759 0 0 0 41.21381 15.23129q1.25813.04493 2.50663.04386a69.70493 69.70493 0 0 0 59.05886-32.37846 61.6904 61.6904 0 0 1 -59.38837 45.3 61.29608 61.29608 0 0 1 -42.14684-16.69292zm14.411 42.72915c-.21718-.44392-.43315-.89358-.64912-1.34338a116.093 116.093 0 0 1 -2.328-27.47138q2.87272 1.50326 5.87556 2.71966a129.08766 129.08766 0 0 0 -2.89844 26.0951zm18.14581 30.72723a229.647 229.647 0 0 1 -12.8378-20.55186c-.27762-2.33038-.44051-4.67633-.51112-6.99922l16.818 18.12313zm5.3064-14.42142-18.47291-19.90648-.15606.14483c.04908-1.3391.12-2.656.21143-3.93861l20.81184 17.19324zm4.13042-11.22535-21.99353-18.16953-.01712.02059c.147-1.25332.3049-2.45214.46886-3.58449l23.2024 17.22039z"/></g></svg>