<svg viewBox="0 0 1870.50562 854.06305" xmlns="http://www.w3.org/2000/svg"><g opacity=".3"><circle cx="681.64905" cy="393.2847" fill="#4352fc" r="9.05881"/><circle cx="601.99561" cy="724.53308" fill="none" r="127.02994" stroke="#4352fc" stroke-miterlimit="10" stroke-width="5"/><circle cx="511.39612" cy="393.2847" fill="none" r="127.02992" stroke="#4352fc" stroke-miterlimit="10" stroke-width="5"/><circle cx="555.52014" cy="170.33076" fill="#4352fc" r="27.4894"/><circle cx="429.39124" cy="393.2847" fill="#4352fc" r="9.05881"/><circle cx="554.01892" cy="11.55878" fill="#4352fc" r="9.05881"/><circle cx="554.01892" cy="545.43823" fill="#4352fc" r="9.05881"/><path d="m838.7323 301.74069 104.22107 91.46445" fill="none" stroke="#4352fc" stroke-miterlimit="10" stroke-width="5"/><circle cx="838.7323" cy="301.74069" fill="none" r="43.15088" stroke="#4352fc" stroke-miterlimit="10" stroke-width="5"/><circle cx="890.09521" cy="346.96133" fill="#4352fc" r="9.05881"/><circle cx="838.7323" cy="301.74069" fill="#4352fc" r="9.05881"/><circle cx="1047.17456" cy="45.65088" fill="#4352fc" r="9.05881"/><circle cx="838.7323" cy="757.31744" fill="#4352fc" r="9.05881"/><circle cx="1047.17456" cy="484.66919" fill="#4352fc" r="9.05881"/><path d="m1047.17456 575.51123-104.22119 91.46448" fill="none" stroke="#4352fc" stroke-miterlimit="10" stroke-width="5"/><circle cx="1047.17456" cy="45.65088" fill="none" r="43.15089" stroke="#4352fc" stroke-miterlimit="10" stroke-width="5"/><circle cx="995.81152" cy="346.96133" fill="#4352fc" r="9.05881"/><path d="m1047.17407 484.66949-104.22119-91.46435" fill="none" stroke="#4352fc" stroke-miterlimit="10" stroke-width="5"/><circle cx="1047.17407" cy="484.6695" fill="none" r="43.15084" stroke="#4352fc" stroke-miterlimit="10" stroke-width="5"/><circle cx="995.81104" cy="439.44891" fill="#4352fc" r="9.05879"/><path d="m838.7323 758.43976 104.22058-91.46405" fill="none" stroke="#4352fc" stroke-miterlimit="10" stroke-width="5"/><circle cx="838.7323" cy="757.31744" fill="none" r="43.15079" stroke="#4352fc" stroke-miterlimit="10" stroke-width="5"/><circle cx="890.095" cy="439.44876" fill="#4352fc" r="9.05876"/><circle cx="942.95337" cy="170.33076" fill="#4352fc" r="26.11497"/><circle cx="942.95337" cy="170.33076" fill="none" r="43.15089" stroke="#4352fc" stroke-miterlimit="10" stroke-width="5"/><circle cx="1861.44678" cy="388.64627" fill="#4352fc" r="9.05881"/><circle cx="1850.26318" cy="445.01575" fill="#4352fc" r="9.05881"/><circle cx="165.77563" cy="388.64627" fill="none" r="67.55312" stroke="#4352fc" stroke-miterlimit="10" stroke-width="5"/><circle cx="165.77563" cy="610.74702" fill="none" r="108.28896" stroke="#4352fc" stroke-miterlimit="10" stroke-width="5"/><circle cx="165.77563" cy="216.92089" fill="none" r="145.9784" stroke="#4352fc" stroke-miterlimit="10" stroke-width="5"/><g fill="#4352fc"><circle cx="225.95618" cy="357.76465" r="9.05881"/><circle cx="311.75391" cy="610.74695" r="9.05881"/><circle cx="300.57031" cy="667.11646" r="9.05881"/><circle cx="109.81958" cy="82.34772" r="9.0587"/><circle cx="166.18823" cy="188.75661" r="9.0587"/><circle cx="222.55713" cy="82.34881" r="9.0587"/><circle cx="193.69299" cy="715.47974" r="9.05869"/><circle cx="166.18921" cy="756.94354" r="9.05869"/><circle cx="135.15076" cy="449.20142" r="9.05869"/><circle cx="67.552" cy="343.46051" r="9.05881"/><circle cx="19.79724" cy="388.64627" r="9.05881"/><circle cx="30.98096" cy="445.01575" r="9.05881"/><circle cx="166.18958" cy="389.01425" r="26.11497"/></g><circle cx="1329.90771" cy="393.2847" fill="none" r="127.02998" stroke="#4352fc" stroke-miterlimit="10" stroke-width="5"/><circle cx="1210.2395" cy="100.16009" fill="#4352fc" r="9.05881"/><circle cx="1329.90771" cy="393.2847" fill="none" r="127.02998" stroke="#4352fc" stroke-miterlimit="10" stroke-width="5"/><path d="m1179.62036 197.82018h300.57471" fill="none" stroke="#4352fc" stroke-miterlimit="10" stroke-width="5"/><path d="m1179.62036 100.16009h300.57471" fill="none" stroke="#4352fc" stroke-miterlimit="10" stroke-width="5"/><path d="m1179.62036 2.5h300.57471" fill="none" stroke="#4352fc" stroke-miterlimit="10" stroke-width="5"/><path d="m1179.62036 393.2847h300.57471" fill="none" stroke="#4352fc" stroke-miterlimit="10" stroke-width="5"/><path d="m1179.62036 435.15967h300.57471" fill="none" stroke="#4352fc" stroke-miterlimit="10" stroke-width="5"/><path d="m1179.62036 578.58765h300.57471" fill="none" stroke="#4352fc" stroke-miterlimit="10" stroke-width="5"/><path d="m1179.62036 658.05768h300.57471" fill="none" stroke="#4352fc" stroke-miterlimit="10" stroke-width="5"/><circle cx="1443.58643" cy="756.94354" fill="#4352fc" r="9.05881"/><circle cx="1401.96851" cy="351.40976" fill="#4352fc" r="9.05881"/><circle cx="1329.90771" cy="393.2847" fill="#4352fc" r="27.48946"/><circle cx="1258.93457" cy="435.15967" fill="#4352fc" r="9.05881"/><circle cx="1715.46851" cy="388.64627" fill="none" r="67.55318" stroke="#4352fc" stroke-miterlimit="10" stroke-width="5"/><circle cx="1715.46851" cy="610.74702" fill="none" r="108.28902" stroke="#4352fc" stroke-miterlimit="10" stroke-width="5"/><circle cx="1715.46851" cy="216.92089" fill="none" r="145.97834" stroke="#4352fc" stroke-miterlimit="10" stroke-width="5"/><circle cx="1775.64917" cy="357.76465" fill="#4352fc" r="9.05881"/><circle cx="1861.44678" cy="610.74695" fill="#4352fc" r="9.05881"/><circle cx="1850.26318" cy="667.11646" fill="#4352fc" r="9.05881"/><circle cx="1659.51245" cy="82.34772" fill="#4352fc" r="9.05864"/><circle cx="1715.8811" cy="188.75661" fill="#4352fc" r="9.05864"/><circle cx="1772.25" cy="82.34881" fill="#4352fc" r="9.05864"/><circle cx="1743.38599" cy="715.47974" fill="#4352fc" r="9.05862"/><circle cx="1715.88208" cy="756.94354" fill="#4352fc" r="9.05862"/><circle cx="1684.84351" cy="449.20142" fill="#4352fc" r="9.05862"/><circle cx="1617.24487" cy="343.46051" fill="#4352fc" r="9.05881"/><circle cx="1569.48999" cy="388.64627" fill="#4352fc" r="9.05881"/><circle cx="1580.67383" cy="445.01575" fill="#4352fc" r="9.05881"/><circle cx="1715.88257" cy="389.01425" fill="#4352fc" r="26.11497"/></g></svg>